<?xml version="1.0" encoding="UTF-8" standalone="no"?>
<!-- Generated by text-to-svg.com -->

<svg
   viewBox="0 8.8900003 200 100"
   data-asc="0.927734375"
   width="200"
   height="100"
   version="1.1"
   id="svg2"
   sodipodi:docname="text.svg"
   inkscape:version="1.4.2 (f4327f4, 2025-05-13)"
   xmlns:inkscape="http://www.inkscape.org/namespaces/inkscape"
   xmlns:sodipodi="http://sodipodi.sourceforge.net/DTD/sodipodi-0.dtd"
   xmlns="http://www.w3.org/2000/svg"
   xmlns:svg="http://www.w3.org/2000/svg">
  <defs
     id="defs2" />
  <sodipodi:namedview
     id="namedview2"
     pagecolor="#ffffff"
     bordercolor="#999999"
     borderopacity="1"
     inkscape:showpageshadow="2"
     inkscape:pageopacity="0"
     inkscape:pagecheckerboard="0"
     inkscape:deskcolor="#d1d1d1"
     inkscape:zoom="5.4146573"
     inkscape:cx="77.567236"
     inkscape:cy="27.056191"
     inkscape:window-width="1920"
     inkscape:window-height="1111"
     inkscape:window-x="-9"
     inkscape:window-y="-9"
     inkscape:window-maximized="1"
     inkscape:current-layer="svg2" />
  <g
     fill="#ff0000"
     id="g2"
     transform="matrix(0.95175129,-0.35041466,0.35041466,0.95175129,9.6165206,61.770185)">
    <g
       id="g1">
      <path
         d="M 4.69,32.47 V 46.39 H 0 V 10.84 h 13.11 q 5.84,0 9.14,2.98 3.31,2.98 3.31,7.88 0,5.18 -3.23,7.98 -3.24,2.79 -9.27,2.79 H 4.69 m 0,-3.83 h 8.42 q 3.76,0 5.76,-1.77 2,-1.77 2,-5.12 0,-3.17 -2,-5.08 -2,-1.9 -5.49,-1.97 H 4.69 Z M 43.6,24.02 q -1.02,-0.17 -2.22,-0.17 -4.44,0 -6.03,3.79 V 46.39 H 30.83 V 19.97 h 4.4 l 0.07,3.05 q 2.22,-3.54 6.3,-3.54 1.32,0 2,0.34 z m 14.65,22.86 q -5.37,0 -8.74,-3.53 -3.37,-3.53 -3.37,-9.44 v -0.83 q 0,-3.93 1.5,-7.02 1.51,-3.09 4.2,-4.83 2.7,-1.75 5.85,-1.75 5.15,0 8.01,3.4 2.85,3.39 2.85,9.71 v 1.88 H 50.66 q 0.1,3.91 2.28,6.31 2.19,2.41 5.56,2.41 2.39,0 4.05,-0.98 1.66,-0.97 2.9,-2.59 l 2.76,2.15 q -3.32,5.11 -9.96,5.11 M 57.69,23.19 q -2.73,0 -4.59,1.99 -1.85,1.99 -2.29,5.58 h 13.23 v -0.34 q -0.2,-3.44 -1.86,-5.33 -1.66,-1.9 -4.49,-1.9 z m 38.4,10.28 q 0,6.03 -2.76,9.72 -2.75,3.69 -7.47,3.69 -4.81,0 -7.56,-3.06 V 56.54 H 73.78 V 19.97 h 4.13 l 0.22,2.93 q 2.75,-3.42 7.66,-3.42 4.76,0 7.53,3.59 2.77,3.59 2.77,9.99 v 0.41 m -4.51,-0.51 q 0,-4.47 -1.91,-7.06 -1.9,-2.58 -5.22,-2.58 -4.1,0 -6.15,3.63 v 12.63 q 2.02,3.61 6.2,3.61 3.24,0 5.16,-2.58 1.92,-2.57 1.92,-7.65 z m 23.02,-8.94 q -1.03,-0.17 -2.22,-0.17 -4.45,0 -6.03,3.79 v 18.75 h -4.52 V 19.97 h 4.4 l 0.07,3.05 q 2.22,-3.54 6.3,-3.54 1.32,0 2,0.34 z m 2.47,8.91 q 0,-3.88 1.52,-6.98 1.53,-3.1 4.25,-4.78 2.72,-1.69 6.21,-1.69 5.4,0 8.73,3.74 3.33,3.73 3.33,9.93 v 0.32 q 0,3.86 -1.47,6.92 -1.48,3.07 -4.23,4.78 -2.74,1.71 -6.31,1.71 -5.37,0 -8.7,-3.74 -3.33,-3.74 -3.33,-9.89 v -0.32 m 4.54,0.54 q 0,4.4 2.04,7.06 2.03,2.66 5.45,2.66 3.44,0 5.47,-2.7 2.03,-2.7 2.03,-7.56 0,-4.34 -2.07,-7.04 -2.06,-2.7 -5.48,-2.7 -3.34,0 -5.39,2.66 -2.05,2.67 -2.05,7.62 z m 24.07,-0.51 q 0,-6.08 2.88,-9.78 2.88,-3.7 7.54,-3.7 4.64,0 7.35,3.18 V 8.89 h 4.52 v 37.5 h -4.15 l -0.22,-2.84 q -2.71,3.33 -7.55,3.33 -4.59,0 -7.48,-3.76 -2.89,-3.76 -2.89,-9.82 v -0.34 m 4.52,0.51 q 0,4.49 1.85,7.03 1.86,2.54 5.13,2.54 4.29,0 6.27,-3.86 V 27.05 q -2.02,-3.73 -6.22,-3.73 -3.32,0 -5.18,2.56 -1.85,2.56 -1.85,7.59 z"
         id="path1" />
    </g>
  </g>
</svg>
